<svg width="24" height="24" viewBox="0 0 24 24" fill="none" xmlns="http://www.w3.org/2000/svg">
<path fill-rule="evenodd" clip-rule="evenodd" d="M14.6536 2.28488C13.8353 1.93985 12.9378 1.75 12 1.75C8.51656 1.75 5.59017 4.36924 5.20549 7.83138L4.95369 10.0976L4.94774 10.1508C4.83894 11.0989 4.53033 12.0131 4.04227 12.8332L4.01479 12.8791L3.43675 13.8425L3.40852 13.8896L3.40851 13.8896C3.17065 14.2859 2.94597 14.6603 2.79472 14.9814C2.64058 15.3087 2.45547 15.7916 2.54369 16.3507C2.62845 16.8879 2.90495 17.3763 3.32202 17.7254C3.75603 18.0886 4.26536 18.1784 4.62529 18.2146C4.97851 18.2501 5.41513 18.2501 5.87738 18.25L5.93223 18.25H18.0678L18.1226 18.25C18.5849 18.2501 19.0215 18.2501 19.3747 18.2146C19.7346 18.1784 20.244 18.0886 20.678 17.7254C21.095 17.3763 21.3715 16.8879 21.4563 16.3507C21.5445 15.7916 21.3594 15.3087 21.2053 14.9814C21.054 14.6603 20.8294 14.2859 20.5915 13.8896L20.5915 13.8895L20.5632 13.8425L19.9852 12.8791L19.9577 12.8332C19.5929 12.2203 19.3284 11.5547 19.1726 10.8617C18.7965 10.9521 18.4038 11 18 11C17.5209 11 17.0575 10.9326 16.6188 10.8068C16.8007 11.9732 17.2045 13.0953 17.8094 14.1118L17.8415 14.1654L18.4195 15.1288C18.576 15.3896 18.6942 15.5875 18.7838 15.7452C18.6025 15.7495 18.372 15.75 18.0678 15.75H5.93223C5.62801 15.75 5.39748 15.7495 5.2162 15.7452C5.30578 15.5875 5.42397 15.3896 5.58049 15.1288L6.15852 14.1654L6.19062 14.1118C6.85943 12.9879 7.28234 11.735 7.43144 10.4358L7.4384 10.3737L7.6902 8.10746C7.9342 5.9114 9.79043 4.25 12 4.25C12.4336 4.25 12.8535 4.31397 13.2503 4.43339C13.5256 3.59825 14.0151 2.86042 14.6536 2.28488ZM17.2115 4.16144C16.499 4.46742 16 5.17544 16 6C16 7.10457 16.8954 8 18 8C18.2825 8 18.5513 7.94143 18.795 7.83576L18.7945 7.83138C18.6389 6.43097 18.0675 5.16847 17.2115 4.16144ZM4.75395 15.7087L4.75674 15.7095C4.75482 15.709 4.75392 15.7087 4.75395 15.7087ZM5.01045 16.1577L5.00969 16.1604C5.00966 16.1604 5.00989 16.1595 5.01045 16.1577Z" fill="black"/>
<path d="M9.10222 17.6647C9.27315 18.6215 9.64978 19.467 10.1737 20.0701C10.6976 20.6731 11.3396 21 12 21C12.6604 21 13.3024 20.6731 13.8263 20.0701C14.3502 19.467 14.7269 18.6215 14.8978 17.6647" stroke="black" stroke-width="2.5" stroke-linecap="round"/>
<circle cx="18" cy="6" r="2.5" fill="black" stroke="black"/>
</svg>
