<svg width="24" height="24" viewBox="0 0 24 24" fill="none" xmlns="http://www.w3.org/2000/svg">
<path d="M14.1361 3.36144L15.3799 3.23706L15.3799 3.23706L14.1361 3.36144ZM13.9838 2.54161L12.8728 3.1146L12.8728 3.1146L13.9838 2.54161ZM14.4311 4.81793L15.4249 4.05978L15.4249 4.05977L14.4311 4.81793ZM15.3595 5.20248L15.1928 3.96364L15.1928 3.96364L15.3595 5.20248ZM16.5979 4.38113L17.3894 5.34858L17.3894 5.34858L16.5979 4.38113ZM17.2853 3.90918L17.6657 5.0999L17.6657 5.0999L17.2853 3.90918ZM17.9872 3.94419L18.4842 2.79724L18.4842 2.79724L17.9872 3.94419ZM18.6243 4.4822L17.7404 5.36608L17.7404 5.36608L18.6243 4.4822ZM19.5178 5.37567L20.4016 4.49178L20.4016 4.49178L19.5178 5.37567ZM20.0558 6.01275L21.2027 5.51577L21.2027 5.51577L20.0558 6.01275ZM20.0908 6.71464L21.2815 7.09503L21.2815 7.09502L20.0908 6.71464ZM19.6188 7.4021L18.6514 6.61055L18.6514 6.61056L19.6188 7.4021ZM18.7975 8.64056L17.5586 8.47391L17.5586 8.47392L18.7975 8.64056ZM19.182 9.56893L18.4238 10.5627L18.4238 10.5627L19.182 9.56893ZM20.6385 9.86385L20.7629 8.62006L20.7629 8.62006L20.6385 9.86385ZM21.4584 10.0162L22.0314 8.90531L22.0314 8.90531L21.4584 10.0162ZM21.9299 10.5373L23.0924 10.0777L23.0924 10.0777L21.9299 10.5373ZM21.93 13.4626L20.7675 13.0031L20.7675 13.0031L21.93 13.4626ZM21.4583 13.9838L22.0312 15.0948L22.0312 15.0948L21.4583 13.9838ZM20.6386 14.1361L20.5142 12.8923L20.4735 12.8964L20.4331 12.9031L20.6386 14.1361ZM20.6386 14.1361L20.763 15.3799L20.8037 15.3759L20.8441 15.3691L20.6386 14.1361ZM19.1825 14.4309L18.4246 13.4369L18.4246 13.4369L19.1825 14.4309ZM18.7979 15.3596L17.5591 15.5265L17.5591 15.5265L18.7979 15.3596ZM19.619 16.5976L18.6515 17.3891L18.6515 17.3891L19.619 16.5976ZM20.0908 17.2848L18.9001 17.6653L18.9001 17.6653L20.0908 17.2848ZM20.0558 17.9869L18.9089 17.4898L18.9089 17.4898L20.0558 17.9869ZM19.5179 18.6238L20.4018 19.5077L20.4018 19.5077L19.5179 18.6238ZM18.6243 19.5174L17.7405 18.6335L17.7404 18.6335L18.6243 19.5174ZM17.9873 20.0554L18.4843 21.2023L18.4843 21.2023L17.9873 20.0554ZM17.2854 20.0904L16.905 21.2811L16.905 21.2811L17.2854 20.0904ZM16.5979 19.6184L17.3895 18.6509L17.3788 18.6423L16.5979 19.6184ZM16.5979 19.6184L15.8063 20.5859L15.817 20.5945L16.5979 19.6184ZM15.3595 18.7971L15.5262 17.5582L15.5262 17.5582L15.3595 18.7971ZM14.4311 19.1816L15.4249 19.9398L15.4249 19.9398L14.4311 19.1816ZM14.1362 20.6383L12.8924 20.5139L12.8924 20.5139L14.1362 20.6383ZM13.9837 21.4585L12.8728 20.8854L12.8728 20.8854L13.9837 21.4585ZM13.4628 21.9299L13.0031 20.7675L13.0031 20.7675L13.4628 21.9299ZM10.5373 21.9299L10.9969 20.7675L10.9969 20.7675L10.5373 21.9299ZM10.0162 21.4584L11.1272 20.8854L11.1272 20.8854L10.0162 21.4584ZM9.86385 20.6385L8.62006 20.7629L8.62006 20.7629L9.86385 20.6385ZM9.56892 19.182L8.5751 19.9402L8.57511 19.9402L9.56892 19.182ZM8.64057 18.7975L8.47395 17.5586L8.47395 17.5586L8.64057 18.7975ZM7.40208 19.6189L6.61053 18.6514L6.59074 18.6676L6.57162 18.6846L7.40208 19.6189ZM7.40206 19.6189L8.19361 20.5863L8.2134 20.5701L8.23252 20.5531L7.40206 19.6189ZM6.71458 20.0908L7.09495 21.2816L7.09495 21.2816L6.71458 20.0908ZM6.01272 20.0558L5.51576 21.2028L5.51576 21.2028L6.01272 20.0558ZM5.37561 19.5178L6.25949 18.6339L6.25949 18.6339L5.37561 19.5178ZM4.48217 18.6243L3.59828 19.5082L3.59828 19.5082L4.48217 18.6243ZM3.94414 17.9873L5.0911 17.4903L5.0911 17.4903L3.94414 17.9873ZM3.90913 17.2854L5.09985 17.6658L5.09985 17.6658L3.90913 17.2854ZM4.3811 16.5979L5.34855 17.3894L5.34855 17.3894L4.3811 16.5979ZM5.20247 15.3594L6.44131 15.5261L6.44131 15.5261L5.20247 15.3594ZM4.81792 14.4311L5.57608 13.4372L5.57608 13.4372L4.81792 14.4311ZM3.36143 14.1361L3.23705 15.3799L3.23705 15.3799L3.36143 14.1361ZM2.54161 13.9838L3.1146 12.8728L3.11459 12.8728L2.54161 13.9838ZM2.07005 13.4627L0.907606 13.9223L0.907606 13.9223L2.07005 13.4627ZM2.07008 10.5372L0.90769 10.0775L0.907689 10.0775L2.07008 10.5372ZM2.54152 10.0163L1.96843 8.9054L1.96843 8.9054L2.54152 10.0163ZM3.36155 9.86384V8.61384H3.29921L3.23717 8.62005L3.36155 9.86384ZM3.36156 9.86384V11.1138H3.4239L3.48594 11.1076L3.36156 9.86384ZM4.81842 9.56881L4.06011 8.57509L4.06011 8.57509L4.81842 9.56881ZM5.20287 8.64066L6.44173 8.4742L6.44173 8.4742L5.20287 8.64066ZM4.38128 7.40182L5.34872 6.61027L5.34872 6.61027L4.38128 7.40182ZM3.90914 6.71405L5.09991 6.33384L5.09991 6.33384L3.90914 6.71405ZM3.94413 6.01243L2.7971 5.51562L2.7971 5.51562L3.94413 6.01243ZM4.48233 5.37509L5.36622 6.25897L5.36622 6.25897L4.48233 5.37509ZM5.37565 4.48177L4.49177 3.59789L4.49177 3.59789L5.37565 4.48177ZM6.01277 3.94373L5.51581 2.79676L5.51581 2.79676L6.01277 3.94373ZM6.71463 3.90872L7.09499 2.718L7.09499 2.718L6.71463 3.90872ZM7.4022 4.38076L8.19374 3.41332L8.19374 3.41332L7.4022 4.38076ZM8.64044 5.20207L8.80728 3.96325L8.80728 3.96325L8.64044 5.20207ZM9.56907 4.81742L8.57512 4.05941L8.57512 4.05941L9.56907 4.81742ZM9.86387 3.36131L11.1077 3.48569L11.1077 3.48568L9.86387 3.36131ZM10.0162 2.5417L8.90519 1.96883L8.90519 1.96884L10.0162 2.5417ZM10.5374 2.07001L10.9969 3.2325L10.9969 3.2325L10.5374 2.07001ZM13.4627 2.07005L13.9223 0.907608L13.9223 0.907607L13.4627 2.07005ZM15.3799 3.23706C15.3599 3.03674 15.3395 2.82567 15.3092 2.64541C15.2769 2.45284 15.2216 2.21474 15.0947 1.96862L12.8728 3.1146C12.8332 3.0378 12.8325 2.99277 12.8437 3.05938C12.8492 3.09245 12.8558 3.14048 12.8642 3.21468C12.8726 3.28895 12.8813 3.37507 12.8923 3.48582L15.3799 3.23706ZM15.4249 4.05977C15.5254 4.19158 15.5136 4.27716 15.4802 4.09167C15.449 3.91813 15.4231 3.66847 15.3799 3.23706L12.8923 3.48582C12.9313 3.87527 12.967 4.24126 13.0197 4.53445C13.0703 4.81569 13.1649 5.21908 13.4372 5.57608L15.4249 4.05977ZM15.1928 3.96364C15.2818 3.95166 15.3704 3.98836 15.4249 4.05978L13.4372 5.57607C13.9275 6.2188 14.7249 6.5491 15.5261 6.44132L15.1928 3.96364ZM15.8063 3.41368C15.4708 3.68823 15.2759 3.84646 15.1311 3.94709C14.9764 4.05464 15.0285 3.98574 15.1928 3.96364L15.5261 6.44132C15.9711 6.38146 16.3232 6.16308 16.5579 5.99999C16.8025 5.82999 17.0865 5.59642 17.3894 5.34858L15.8063 3.41368ZM16.9049 2.71847C16.6411 2.80274 16.4337 2.93206 16.2747 3.04536C16.1258 3.15143 15.9621 3.28621 15.8063 3.41368L17.3894 5.34858C17.4756 5.2781 17.5426 5.22331 17.601 5.17673C17.6594 5.1302 17.698 5.1009 17.7254 5.08145C17.7804 5.04226 17.748 5.0736 17.6657 5.0999L16.9049 2.71847ZM18.4842 2.79724C17.9846 2.58077 17.4235 2.55279 16.9049 2.71847L17.6657 5.0999C17.6081 5.11831 17.5457 5.1152 17.4902 5.09114L18.4842 2.79724ZM19.5082 3.59832C19.3658 3.45597 19.2163 3.30557 19.0788 3.18522C18.9318 3.05666 18.7383 2.90734 18.4842 2.79724L17.4902 5.09114C17.4109 5.05679 17.3819 5.02239 17.4327 5.06685C17.458 5.08893 17.4935 5.12193 17.547 5.17403C17.6005 5.2262 17.6617 5.28738 17.7404 5.36608L19.5082 3.59832ZM20.4016 4.49178L19.5082 3.59832L17.7404 5.36608L18.6339 6.25955L20.4016 4.49178ZM21.2027 5.51577C21.0926 5.26167 20.9433 5.06817 20.8148 4.92121C20.6944 4.78363 20.544 4.63414 20.4016 4.49178L18.6339 6.25955C18.7126 6.33825 18.7738 6.39947 18.8259 6.453C18.878 6.50648 18.911 6.54201 18.9331 6.56724C18.9776 6.61807 18.9432 6.58902 18.9088 6.50974L21.2027 5.51577ZM21.2815 7.09502C21.4472 6.57642 21.4192 6.01533 21.2027 5.51577L18.9088 6.50973C18.8848 6.45422 18.8817 6.39188 18.9001 6.33427L21.2815 7.09502ZM20.5863 8.19365C20.7138 8.03784 20.8485 7.87413 20.9546 7.72525C21.0679 7.56623 21.1972 7.35883 21.2815 7.09503L18.9001 6.33425C18.9264 6.25194 18.9577 6.21961 18.9185 6.27461C18.8991 6.30192 18.8698 6.34055 18.8232 6.39895C18.7767 6.45741 18.7219 6.52441 18.6514 6.61055L20.5863 8.19365ZM20.0363 8.8072C20.0142 8.97149 19.9453 9.02362 20.0529 8.86886C20.1535 8.72406 20.3117 8.52921 20.5863 8.19365L18.6514 6.61056C18.4035 6.91348 18.17 7.19751 17.9999 7.44213C17.8369 7.6768 17.6185 8.02891 17.5586 8.47391L20.0363 8.8072ZM19.9402 8.5751C20.0116 8.62958 20.0483 8.71818 20.0363 8.80719L17.5586 8.47392C17.4509 9.27507 17.7811 10.0724 18.4238 10.5627L19.9402 8.5751ZM20.7629 8.62006C20.3315 8.57691 20.0818 8.55102 19.9083 8.51979C19.7228 8.48641 19.8084 8.47455 19.9402 8.5751L18.4238 10.5627C18.7808 10.8351 19.1842 10.9297 19.4655 10.9803C19.7587 11.033 20.1247 11.0687 20.5142 11.1076L20.7629 8.62006ZM22.0314 8.90531C21.7853 8.77836 21.5472 8.72315 21.3546 8.69082C21.1743 8.66055 20.9632 8.64009 20.7629 8.62006L20.5142 11.1076C20.6249 11.1187 20.711 11.1274 20.7853 11.1358C20.8595 11.1442 20.9076 11.1508 20.9406 11.1563C21.0072 11.1675 20.9622 11.1668 20.8854 11.1272L22.0314 8.90531ZM23.0924 10.0777C22.8922 9.5714 22.5153 9.15488 22.0314 8.90531L20.8854 11.1272C20.8316 11.0994 20.7898 11.0532 20.7675 10.9969L23.0924 10.0777ZM23.25 11.3682C23.25 11.1669 23.2506 10.9549 23.2385 10.7725C23.2255 10.5776 23.1942 10.3352 23.0924 10.0777L20.7675 10.9969C20.7357 10.9165 20.7395 10.8717 20.744 10.9391C20.7463 10.9725 20.748 11.021 20.749 11.0956C20.75 11.1704 20.75 11.2569 20.75 11.3682H23.25ZM23.25 12.6319V11.3682H20.75V12.6319H23.25ZM23.0925 13.9221C23.1942 13.6646 23.2255 13.4223 23.2385 13.2275C23.2506 13.0452 23.25 12.8331 23.25 12.6319H20.75C20.75 12.7432 20.75 12.8297 20.749 12.9044C20.748 12.9791 20.7463 13.0275 20.744 13.0609C20.7395 13.1283 20.7357 13.0835 20.7675 13.0031L23.0925 13.9221ZM22.0312 15.0948C22.5152 14.8452 22.8923 14.4286 23.0925 13.9221L20.7675 13.0031C20.7897 12.9468 20.8316 12.9005 20.8854 12.8728L22.0312 15.0948ZM20.763 15.3799C20.9633 15.3599 21.1743 15.3395 21.3546 15.3092C21.5471 15.2769 21.7851 15.2217 22.0312 15.0948L20.8854 12.8728C20.9622 12.8332 21.0072 12.8325 20.9406 12.8437C20.9076 12.8492 20.8595 12.8558 20.7853 12.8642C20.7111 12.8726 20.625 12.8813 20.5142 12.8923L20.763 15.3799ZM20.8441 15.3691L20.8441 15.3691L20.4331 12.9031L20.4331 12.9031L20.8441 15.3691ZM19.9405 15.4249C19.8087 15.5254 19.7232 15.5135 19.9086 15.4802C20.0821 15.4489 20.3317 15.4231 20.763 15.3799L20.5142 12.8923C20.1249 12.9313 19.759 12.9669 19.4659 13.0197C19.1848 13.0703 18.7815 13.1648 18.4246 13.4369L19.9405 15.4249ZM20.0367 15.1927C20.0487 15.2818 20.012 15.3704 19.9405 15.4249L18.4246 13.4369C17.7815 13.9273 17.4511 14.725 17.5591 15.5265L20.0367 15.1927ZM20.5864 15.806C20.312 15.4706 20.1538 15.2758 20.0532 15.1311C19.9457 14.9764 20.0145 15.0285 20.0367 15.1927L17.5591 15.5265C17.619 15.9713 17.8373 16.3233 18.0003 16.5579C18.1703 16.8024 18.4038 17.0863 18.6515 17.3891L20.5864 15.806ZM21.2815 16.9042C21.1972 16.6405 21.0679 16.4332 20.9546 16.2743C20.8486 16.1254 20.7139 15.9618 20.5864 15.806L18.6515 17.3891C18.722 17.4752 18.7768 17.5422 18.8233 17.6007C18.8698 17.659 18.8991 17.6977 18.9186 17.7249C18.9577 17.7799 18.9264 17.7476 18.9001 17.6653L21.2815 16.9042ZM21.2027 18.4841C21.4193 17.9844 21.4473 17.423 21.2815 16.9042L18.9001 17.6653C18.8817 17.6077 18.8848 17.5453 18.9089 17.4898L21.2027 18.4841ZM20.4018 19.5077C20.5441 19.3654 20.6945 19.2159 20.8148 19.0784C20.9433 18.9315 21.0926 18.7381 21.2027 18.4841L18.9089 17.4898C18.9432 17.4105 18.9776 17.3815 18.9332 17.4323C18.9111 17.4575 18.8781 17.493 18.826 17.5465C18.7739 17.6 18.7127 17.6612 18.634 17.7399L20.4018 19.5077ZM19.5082 20.4012L20.4018 19.5077L18.634 17.7399L17.7405 18.6335L19.5082 20.4012ZM18.4843 21.2023C18.7384 21.0922 18.9318 20.9429 19.0788 20.8143C19.2164 20.694 19.3659 20.5436 19.5082 20.4012L17.7404 18.6335C17.6617 18.7122 17.6005 18.7734 17.547 18.8255C17.4935 18.8776 17.458 18.9106 17.4328 18.9327C17.3819 18.9772 17.411 18.9428 17.4903 18.9084L18.4843 21.2023ZM16.905 21.2811C17.4236 21.4468 17.9847 21.4188 18.4843 21.2023L17.4903 18.9084C17.5458 18.8844 17.6081 18.8813 17.6658 18.8997L16.905 21.2811ZM15.8064 20.5859C15.9622 20.7133 16.1259 20.8481 16.2748 20.9542C16.4338 21.0675 16.6412 21.1968 16.905 21.2811L17.6658 18.8997C17.7481 18.926 17.7804 18.9573 17.7254 18.9181C17.6981 18.8987 17.6595 18.8694 17.6011 18.8228C17.5426 18.7762 17.4756 18.7215 17.3895 18.651L15.8064 20.5859ZM15.817 20.5945L15.817 20.5945L17.3788 18.6423L17.3788 18.6423L15.817 20.5945ZM15.1928 20.0359C15.0285 20.0138 14.9764 19.9449 15.1312 20.0525C15.276 20.1531 15.4708 20.3113 15.8064 20.5859L17.3895 18.651C17.0865 18.4031 16.8025 18.1696 16.5579 17.9996C16.3232 17.8365 15.9711 17.6181 15.5262 17.5582L15.1928 20.0359ZM15.4249 19.9398C15.3705 20.0112 15.2819 20.0479 15.1928 20.0359L15.5262 17.5582C14.725 17.4505 13.9276 17.7808 13.4373 18.4235L15.4249 19.9398ZM15.38 20.7627C15.4231 20.3312 15.449 20.0815 15.4802 19.9079C15.5136 19.7224 15.5255 19.808 15.4249 19.9398L13.4373 18.4235C13.1649 18.7805 13.0704 19.1839 13.0198 19.4652C12.967 19.7584 12.9313 20.1244 12.8924 20.5139L15.38 20.7627ZM15.0946 22.0316C15.2216 21.7854 15.2768 21.5472 15.3092 21.3546C15.3395 21.1743 15.3599 20.9631 15.38 20.7627L12.8924 20.5139C12.8813 20.6247 12.8727 20.7109 12.8642 20.7852C12.8559 20.8594 12.8493 20.9075 12.8437 20.9406C12.8325 21.0072 12.8332 20.9622 12.8728 20.8854L15.0946 22.0316ZM13.9225 23.0923C14.4286 22.8921 14.845 22.5153 15.0946 22.0316L12.8728 20.8854C12.9006 20.8316 12.9468 20.7898 13.0031 20.7675L13.9225 23.0923ZM12.6316 23.25C12.833 23.25 13.0451 23.2506 13.2276 23.2385C13.4225 23.2254 13.6649 23.1942 13.9225 23.0923L13.0031 20.7675C13.0834 20.7357 13.1283 20.7395 13.0609 20.744C13.0275 20.7463 12.979 20.748 12.9043 20.749C12.8295 20.75 12.743 20.75 12.6316 20.75V23.25ZM11.3682 23.25H12.6316V20.75H11.3682V23.25ZM10.0777 23.0924C10.3352 23.1942 10.5776 23.2255 10.7725 23.2385C10.9549 23.2506 11.1669 23.25 11.3682 23.25V20.75C11.2569 20.75 11.1704 20.75 11.0956 20.749C11.021 20.748 10.9725 20.7463 10.9391 20.744C10.8717 20.7395 10.9166 20.7357 10.9969 20.7675L10.0777 23.0924ZM8.90531 22.0314C9.15487 22.5153 9.5714 22.8922 10.0777 23.0924L10.9969 20.7675C11.0532 20.7898 11.0994 20.8316 11.1272 20.8854L8.90531 22.0314ZM8.62006 20.7629C8.64009 20.9633 8.66055 21.1743 8.69082 21.3546C8.72315 21.5472 8.77836 21.7853 8.90531 22.0314L11.1272 20.8854C11.1668 20.9622 11.1675 21.0072 11.1563 20.9406C11.1508 20.9076 11.1442 20.8595 11.1358 20.7853C11.1274 20.711 11.1187 20.6249 11.1077 20.5142L8.62006 20.7629ZM8.57511 19.9402C8.47455 19.8084 8.48641 19.7228 8.51979 19.9083C8.55102 20.0818 8.57692 20.3315 8.62006 20.7629L11.1077 20.5142C11.0687 20.1247 11.033 19.7587 10.9803 19.4655C10.9297 19.1842 10.8351 18.7808 10.5627 18.4238L8.57511 19.9402ZM8.80719 20.0363C8.71818 20.0483 8.62958 20.0116 8.5751 19.9402L10.5627 18.4238C10.0724 17.7811 9.27508 17.4509 8.47395 17.5586L8.80719 20.0363ZM8.19362 20.5863C8.5292 20.3117 8.72406 20.1535 8.86886 20.0529C9.02363 19.9453 8.9715 20.0142 8.80719 20.0363L8.47395 17.5586C8.02893 17.6185 7.6768 17.8369 7.44213 18C7.1975 18.17 6.91347 18.4036 6.61053 18.6514L8.19362 20.5863ZM8.23252 20.5531L8.23253 20.5531L6.57162 18.6846L6.57161 18.6846L8.23252 20.5531ZM7.09495 21.2816C7.35875 21.1973 7.56616 21.068 7.72519 20.9547C7.87408 20.8486 8.03779 20.7138 8.19361 20.5863L6.61052 18.6514C6.52437 18.7219 6.45737 18.7767 6.39891 18.8233C6.34051 18.8698 6.30188 18.8991 6.27457 18.9186C6.21957 18.9577 6.2519 18.9264 6.33422 18.9001L7.09495 21.2816ZM5.51576 21.2028C6.0153 21.4192 6.57636 21.4472 7.09495 21.2816L6.33422 18.9001C6.39183 18.8817 6.45417 18.8848 6.50968 18.9089L5.51576 21.2028ZM4.49172 20.4017C4.63408 20.544 4.78358 20.6944 4.92117 20.8148C5.06814 20.9434 5.26165 21.0927 5.51576 21.2028L6.50969 18.9089C6.58898 18.9432 6.61803 18.9776 6.5672 18.9332C6.54196 18.9111 6.50643 18.8781 6.45295 18.826C6.39942 18.7738 6.3382 18.7126 6.25949 18.6339L4.49172 20.4017ZM3.59828 19.5082L4.49172 20.4017L6.25949 18.6339L5.36605 17.7405L3.59828 19.5082ZM2.79718 18.4842C2.90728 18.7383 3.0566 18.9318 3.18517 19.0788C3.30552 19.2164 3.45593 19.3659 3.59828 19.5082L5.36605 17.7405C5.28735 17.6618 5.22616 17.6005 5.174 17.547C5.12188 17.4935 5.08888 17.458 5.06681 17.4328C5.02234 17.3819 5.05674 17.411 5.0911 17.4903L2.79718 18.4842ZM2.71841 16.905C2.55274 17.4236 2.58073 17.9847 2.79718 18.4842L5.0911 17.4903C5.11515 17.5458 5.11826 17.6081 5.09985 17.6658L2.71841 16.905ZM3.41366 15.8063C3.28617 15.9622 3.15139 16.1259 3.04532 16.2748C2.93201 16.4338 2.80268 16.6412 2.71841 16.905L5.09985 17.6658C5.07356 17.7481 5.04221 17.7804 5.0814 17.7254C5.10086 17.6981 5.13016 17.6595 5.17669 17.6011C5.22327 17.5426 5.27807 17.4756 5.34855 17.3894L3.41366 15.8063ZM3.96363 15.1928C3.98573 15.0285 4.05463 14.9764 3.94708 15.1311C3.84644 15.2759 3.68821 15.4708 3.41366 15.8063L5.34855 17.3894C5.5964 17.0865 5.82997 16.8025 5.99998 16.5579C6.16307 16.3232 6.38145 15.9711 6.44131 15.5261L3.96363 15.1928ZM4.05977 15.4249C3.98836 15.3704 3.95166 15.2818 3.96363 15.1928L6.44131 15.5261C6.54909 14.7249 6.21879 13.9275 5.57608 13.4372L4.05977 15.4249ZM3.23705 15.3799C3.66847 15.4231 3.91813 15.449 4.09167 15.4802C4.27715 15.5136 4.19157 15.5254 4.05977 15.4249L5.57608 13.4372C5.21909 13.1649 4.81569 13.0703 4.53444 13.0197C4.24125 12.967 3.87526 12.9313 3.48581 12.8923L3.23705 15.3799ZM1.96863 15.0947C2.21474 15.2216 2.45284 15.2768 2.6454 15.3092C2.82567 15.3395 3.03674 15.3599 3.23705 15.3799L3.48581 12.8923C3.37507 12.8813 3.28894 12.8726 3.21467 12.8642C3.14048 12.8558 3.09244 12.8492 3.05938 12.8437C2.99278 12.8325 3.0378 12.8332 3.1146 12.8728L1.96863 15.0947ZM0.907606 13.9223C1.10778 14.4286 1.48475 14.8451 1.96863 15.0947L3.11459 12.8728C3.16836 12.9006 3.21025 12.9468 3.23249 13.0031L0.907606 13.9223ZM0.75 12.6318C0.75 12.8331 0.749354 13.0451 0.761534 13.2275C0.774546 13.4224 0.805787 13.6648 0.907606 13.9223L3.23249 13.0031C3.26426 13.0835 3.26048 13.1283 3.25598 13.0609C3.25374 13.0275 3.25196 12.979 3.25099 12.9044C3.25002 12.8296 3.25 12.7431 3.25 12.6318H0.75ZM0.75 11.3683V12.6318H3.25V11.3683H0.75ZM0.907689 10.0775C0.805817 10.3351 0.774559 10.5776 0.76154 10.7724C0.749353 10.9549 0.75 11.167 0.75 11.3683H3.25C3.25 11.257 3.25002 11.1704 3.25099 11.0957C3.25196 11.021 3.25375 10.9725 3.25598 10.9391C3.26048 10.8717 3.26427 10.9166 3.23248 10.9969L0.907689 10.0775ZM1.96843 8.9054C1.48472 9.15494 1.10786 9.57136 0.90769 10.0775L3.23248 10.9969C3.21024 11.0532 3.16837 11.0994 3.11462 11.1272L1.96843 8.9054ZM3.23717 8.62005C3.0368 8.64008 2.82568 8.66055 2.64537 8.69083C2.45275 8.72317 2.2146 8.7784 1.96843 8.9054L3.11462 11.1272C3.0378 11.1668 2.99277 11.1675 3.05939 11.1563C3.09246 11.1508 3.14051 11.1442 3.21472 11.1358C3.28901 11.1274 3.37515 11.1187 3.48593 11.1076L3.23717 8.62005ZM3.36155 8.61384H3.36155V11.1138H3.36155V8.61384ZM3.36156 8.61384H3.36155V11.1138H3.36156V8.61384ZM4.06011 8.57509C4.19193 8.4745 4.27755 8.48636 4.09202 8.51975C3.91843 8.55099 3.66871 8.57689 3.23718 8.62005L3.48594 11.1076C3.8755 11.0687 4.24158 11.033 4.53485 10.9802C4.81617 10.9296 5.21967 10.835 5.57672 10.5625L4.06011 8.57509ZM3.964 8.80713C3.95204 8.71813 3.98873 8.62956 4.06011 8.57509L5.57672 10.5625C6.21917 10.0723 6.54936 9.27514 6.44173 8.4742L3.964 8.80713ZM3.41383 8.19337C3.68847 8.52904 3.84676 8.72396 3.94742 8.86881C4.05502 9.02363 3.98609 8.97148 3.964 8.80713L6.44173 8.4742C6.38192 8.02905 6.16348 7.67683 6.00035 7.44211C5.8303 7.19741 5.59666 6.9133 5.34872 6.61027L3.41383 8.19337ZM2.71836 7.09427C2.80263 7.35818 2.932 7.56567 3.04534 7.72476C3.15145 7.8737 3.28629 8.03748 3.41383 8.19337L5.34872 6.61027C5.27821 6.52409 5.22339 6.45706 5.17679 6.39857C5.13024 6.34015 5.10093 6.30149 5.08146 6.27417C5.04226 6.21914 5.07361 6.25148 5.09991 6.33384L2.71836 7.09427ZM2.7971 5.51562C2.58081 6.015 2.55283 6.57584 2.71836 7.09427L5.09991 6.33384C5.1183 6.39144 5.11519 6.45376 5.09116 6.50924L2.7971 5.51562ZM3.59845 4.4912C3.45604 4.63361 3.30558 4.78316 3.18518 4.9208C3.05658 5.06782 2.90721 5.26141 2.7971 5.51562L5.09116 6.50925C5.0568 6.58857 5.02238 6.61763 5.06686 6.56678C5.08895 6.54154 5.12196 6.506 5.17409 6.4525C5.22627 6.39895 5.28748 6.3377 5.36622 6.25897L3.59845 4.4912ZM4.49177 3.59789L3.59845 4.49121L5.36622 6.25897L6.25954 5.36565L4.49177 3.59789ZM4.49177 3.59788L4.49177 3.59789L6.25954 5.36565L6.25954 5.36565L4.49177 3.59788ZM5.51581 2.79676C5.26169 2.90686 5.06818 3.05619 4.92121 3.18476C4.78363 3.30512 4.63413 3.45553 4.49177 3.59788L6.25954 5.36565C6.33824 5.28695 6.39947 5.22575 6.453 5.17359C6.50648 5.12148 6.54201 5.08848 6.56724 5.0664C6.61808 5.02193 6.58902 5.05634 6.50973 5.09069L5.51581 2.79676ZM7.09499 2.718C6.5764 2.55234 6.01534 2.58032 5.51581 2.79676L6.50973 5.09069C6.45422 5.11474 6.39188 5.11785 6.33426 5.09945L7.09499 2.718ZM8.19374 3.41332C8.0379 3.28581 7.87416 3.15101 7.72527 3.04493C7.56624 2.93162 7.35882 2.80228 7.09499 2.718L6.33426 5.09945C6.25193 5.07314 6.21959 5.0418 6.27463 5.08101C6.30194 5.10047 6.34059 5.12978 6.399 5.17632C6.45747 5.22291 6.52449 5.27772 6.61065 5.34821L8.19374 3.41332ZM8.80728 3.96325C8.97155 3.98537 9.02367 4.05426 8.86889 3.94669C8.7241 3.84606 8.52926 3.68783 8.19374 3.41332L6.61065 5.34821C6.91355 5.59603 7.19752 5.82957 7.44209 5.99955C7.67668 6.1626 8.02871 6.38097 8.47361 6.44088L8.80728 3.96325ZM8.57512 4.05941C8.62961 3.98797 8.71824 3.95126 8.80728 3.96325L8.47361 6.44088C9.27499 6.54881 10.0727 6.2184 10.563 5.57542L8.57512 4.05941ZM8.62007 3.23693C8.57694 3.66822 8.55106 3.91781 8.51984 4.09131C8.48647 4.27674 8.47462 4.19119 8.57512 4.05941L10.563 5.57542C10.8352 5.21849 10.9297 4.8152 10.9803 4.53403C11.0331 4.24092 11.0687 3.87503 11.1077 3.48569L8.62007 3.23693ZM8.90519 1.96884C8.77831 2.2149 8.72313 2.45293 8.69081 2.64544C8.66055 2.82566 8.6401 3.03667 8.62007 3.23693L11.1077 3.48568C11.1187 3.37497 11.1274 3.28887 11.1358 3.21462C11.1442 3.14045 11.1508 3.09242 11.1563 3.05937C11.1675 2.99278 11.1668 3.03779 11.1272 3.11457L8.90519 1.96884ZM10.0779 0.90752C9.57145 1.10771 9.15478 1.48479 8.90519 1.96883L11.1272 3.11458C11.0995 3.16836 11.0532 3.21025 10.9969 3.2325L10.0779 0.90752ZM11.3681 0.75C11.1668 0.75 10.9548 0.749354 10.7725 0.761528C10.5777 0.774532 10.3354 0.805756 10.0779 0.907521L10.9969 3.2325C10.9165 3.26425 10.8717 3.26047 10.9391 3.25597C10.9725 3.25374 11.0209 3.25196 11.0956 3.25099C11.1703 3.25002 11.2568 3.25 11.3681 3.25V0.75ZM12.6318 0.75H11.3681V3.25H12.6318V0.75ZM13.9223 0.907607C13.6648 0.805788 13.4224 0.774546 13.2275 0.761534C13.0451 0.749354 12.8331 0.75 12.6318 0.75V3.25C12.7431 3.25 12.8296 3.25002 12.9044 3.25099C12.979 3.25196 13.0275 3.25374 13.0609 3.25598C13.1283 3.26048 13.0835 3.26426 13.0031 3.23249L13.9223 0.907607ZM15.0947 1.96863C14.8451 1.48476 14.4286 1.10779 13.9223 0.907608L13.0031 3.23249C12.9468 3.21025 12.9006 3.16836 12.8728 3.1146L15.0947 1.96863ZM14.75 12C14.75 13.5188 13.5188 14.75 12 14.75V17.25C14.8995 17.25 17.25 14.8995 17.25 12H14.75ZM12 9.25C13.5188 9.25 14.75 10.4812 14.75 12H17.25C17.25 9.10051 14.8995 6.75 12 6.75V9.25ZM9.25 12C9.25 10.4812 10.4812 9.25 12 9.25V6.75C9.10051 6.75 6.75 9.10051 6.75 12H9.25ZM12 14.75C10.4812 14.75 9.25 13.5188 9.25 12H6.75C6.75 14.8995 9.10051 17.25 12 17.25V14.75Z" fill="black"/>
</svg>
