<svg width="24" height="24" viewBox="0 0 24 24" fill="none" xmlns="http://www.w3.org/2000/svg">
<path d="M2 12L1.02391 11.2191L0.399219 12L1.02391 12.7809L2 12ZM11 13.25C11.6904 13.25 12.25 12.6904 12.25 12C12.25 11.3096 11.6904 10.75 11 10.75V13.25ZM5.02391 6.21913L1.02391 11.2191L2.97609 12.7809L6.97609 7.78087L5.02391 6.21913ZM1.02391 12.7809L5.02391 17.7809L6.97609 16.2191L2.97609 11.2191L1.02391 12.7809ZM2 13.25H11V10.75H2V13.25Z" fill="black"/>
<path d="M10 8.13193V7.38851C10 5.77017 10 4.961 10.474 4.4015C10.9479 3.84201 11.7461 3.70899 13.3424 3.44293L15.0136 3.1644C18.2567 2.62388 19.8782 2.35363 20.9391 3.25232C22 4.15102 22 5.79493 22 9.08276V14.9172C22 18.2051 22 19.849 20.9391 20.7477C19.8782 21.6464 18.2567 21.3761 15.0136 20.8356L13.3424 20.5571C11.7461 20.291 10.9479 20.158 10.474 19.5985C10 19.039 10 18.2298 10 16.6115V16.066" stroke="black" stroke-width="2.5"/>
</svg>
